<svg xmlns="http://www.w3.org/2000/svg" xmlns:xlink="http://www.w3.org/1999/xlink" width="400" zoomAndPan="magnify" viewBox="0 0 300 74.999997" height="100" preserveAspectRatio="xMidYMid meet" version="1.0"><defs><g/><clipPath id="d5afb0a038"><path d="M 1.65625 15.007812 L 41.40625 15.007812 L 41.40625 54.757812 L 1.65625 54.757812 Z M 1.65625 15.007812 " clip-rule="nonzero"/></clipPath></defs><path fill="#fffafd" d="M 16.902344 29.550781 L 18.160156 29.550781 L 18.160156 28.226562 L 16.902344 28.226562 L 16.902344 29.550781 " fill-opacity="1" fill-rule="nonzero"/><path fill="#fffafd" d="M 16.859375 33.515625 L 15.539062 33.515625 L 15.539062 35.5 L 16.859375 35.5 L 16.859375 33.515625 " fill-opacity="1" fill-rule="nonzero"/><path fill="#fffafd" d="M 19.503906 33.515625 L 18.179688 33.515625 L 18.179688 35.5 L 19.503906 35.5 L 19.503906 33.515625 " fill-opacity="1" fill-rule="nonzero"/><path fill="#fffafd" d="M 22.148438 33.515625 L 20.824219 33.515625 L 20.824219 35.5 L 22.148438 35.5 L 22.148438 33.515625 " fill-opacity="1" fill-rule="nonzero"/><path fill="#fffafd" d="M 24.789062 33.515625 L 23.46875 33.515625 L 23.46875 35.5 L 24.789062 35.5 L 24.789062 33.515625 " fill-opacity="1" fill-rule="nonzero"/><path fill="#fffafd" d="M 23.46875 23.601562 L 24.789062 23.601562 L 24.789062 21.617188 L 23.46875 21.617188 L 23.46875 23.601562 " fill-opacity="1" fill-rule="nonzero"/><path fill="#fffafd" d="M 26.113281 23.601562 L 27.433594 23.601562 L 27.433594 21.617188 L 26.113281 21.617188 L 26.113281 23.601562 " fill-opacity="1" fill-rule="nonzero"/><path fill="#fffafd" d="M 30.078125 21.617188 L 28.757812 21.617188 L 28.757812 23.601562 L 30.078125 23.601562 L 30.078125 21.617188 " fill-opacity="1" fill-rule="nonzero"/><path fill="#fffafd" d="M 32.722656 21.617188 L 31.398438 21.617188 L 31.398438 23.601562 L 32.722656 23.601562 L 32.722656 21.617188 " fill-opacity="1" fill-rule="nonzero"/><path fill="#fffafd" d="M 23.46875 26.90625 L 24.789062 26.90625 L 24.789062 24.921875 L 23.46875 24.921875 L 23.46875 26.90625 " fill-opacity="1" fill-rule="nonzero"/><path fill="#fffafd" d="M 26.113281 26.90625 L 27.433594 26.90625 L 27.433594 24.921875 L 26.113281 24.921875 L 26.113281 26.90625 " fill-opacity="1" fill-rule="nonzero"/><path fill="#fffafd" d="M 30.078125 24.921875 L 28.757812 24.921875 L 28.757812 26.90625 L 30.078125 26.90625 L 30.078125 24.921875 " fill-opacity="1" fill-rule="nonzero"/><path fill="#fffafd" d="M 32.722656 24.921875 L 31.398438 24.921875 L 31.398438 26.90625 L 32.722656 26.90625 L 32.722656 24.921875 " fill-opacity="1" fill-rule="nonzero"/><path fill="#fffafd" d="M 32.722656 28.226562 L 31.398438 28.226562 L 31.398438 30.210938 L 32.722656 30.210938 L 32.722656 28.226562 " fill-opacity="1" fill-rule="nonzero"/><path fill="#fffafd" d="M 32.722656 31.53125 L 31.398438 31.53125 L 31.398438 33.515625 L 32.722656 33.515625 L 32.722656 31.53125 " fill-opacity="1" fill-rule="nonzero"/><path fill="#fffafd" d="M 27.433594 33.515625 L 26.113281 33.515625 L 26.113281 35.5 L 27.433594 35.5 L 27.433594 33.515625 " fill-opacity="1" fill-rule="nonzero"/><path fill="#fffafd" d="M 16.859375 36.820312 L 15.539062 36.820312 L 15.539062 38.804688 L 16.859375 38.804688 L 16.859375 36.820312 " fill-opacity="1" fill-rule="nonzero"/><path fill="#fffafd" d="M 19.503906 36.820312 L 18.179688 36.820312 L 18.179688 38.804688 L 19.503906 38.804688 L 19.503906 36.820312 " fill-opacity="1" fill-rule="nonzero"/><path fill="#fffafd" d="M 20.824219 38.804688 L 22.148438 38.804688 L 22.148438 36.820312 L 20.824219 36.820312 L 20.824219 38.804688 " fill-opacity="1" fill-rule="nonzero"/><path fill="#fffafd" d="M 23.46875 38.804688 L 24.789062 38.804688 L 24.789062 36.820312 L 23.46875 36.820312 L 23.46875 38.804688 " fill-opacity="1" fill-rule="nonzero"/><path fill="#fffafd" d="M 26.113281 38.804688 L 27.433594 38.804688 L 27.433594 36.820312 L 26.113281 36.820312 L 26.113281 38.804688 " fill-opacity="1" fill-rule="nonzero"/><path fill="#fffafd" d="M 16.859375 40.125 L 15.539062 40.125 L 15.539062 42.109375 L 16.859375 42.109375 L 16.859375 40.125 " fill-opacity="1" fill-rule="nonzero"/><path fill="#fffafd" d="M 19.503906 40.125 L 18.179688 40.125 L 18.179688 42.109375 L 19.503906 42.109375 L 19.503906 40.125 " fill-opacity="1" fill-rule="nonzero"/><path fill="#fffafd" d="M 20.824219 42.109375 L 22.148438 42.109375 L 22.148438 40.125 L 20.824219 40.125 L 20.824219 42.109375 " fill-opacity="1" fill-rule="nonzero"/><path fill="#fffafd" d="M 23.46875 42.109375 L 24.789062 42.109375 L 24.789062 40.125 L 23.46875 40.125 L 23.46875 42.109375 " fill-opacity="1" fill-rule="nonzero"/><path fill="#fffafd" d="M 26.113281 42.109375 L 27.433594 42.109375 L 27.433594 40.125 L 26.113281 40.125 L 26.113281 42.109375 " fill-opacity="1" fill-rule="nonzero"/><path fill="#fffafd" d="M 15.539062 45.414062 L 16.859375 45.414062 L 16.859375 43.429688 L 15.539062 43.429688 L 15.539062 45.414062 " fill-opacity="1" fill-rule="nonzero"/><path fill="#fffafd" d="M 18.179688 45.414062 L 19.503906 45.414062 L 19.503906 43.429688 L 18.179688 43.429688 L 18.179688 45.414062 " fill-opacity="1" fill-rule="nonzero"/><path fill="#fffafd" d="M 7.605469 32.195312 L 8.929688 32.195312 L 8.929688 30.210938 L 7.605469 30.210938 L 7.605469 32.195312 " fill-opacity="1" fill-rule="nonzero"/><path fill="#fffafd" d="M 11.570312 30.210938 L 10.25 30.210938 L 10.25 32.195312 L 11.570312 32.195312 L 11.570312 30.210938 " fill-opacity="1" fill-rule="nonzero"/><path fill="#fffafd" d="M 7.605469 28.890625 L 8.929688 28.890625 L 8.929688 26.90625 L 7.605469 26.90625 L 7.605469 28.890625 " fill-opacity="1" fill-rule="nonzero"/><path fill="#fffafd" d="M 11.570312 26.90625 L 10.25 26.90625 L 10.25 28.890625 L 11.570312 28.890625 L 11.570312 26.90625 " fill-opacity="1" fill-rule="nonzero"/><path fill="#fffafd" d="M 7.605469 48.71875 L 8.929688 48.71875 L 8.929688 46.734375 L 7.605469 46.734375 L 7.605469 48.71875 " fill-opacity="1" fill-rule="nonzero"/><path fill="#fffafd" d="M 11.570312 46.734375 L 10.25 46.734375 L 10.25 48.71875 L 11.570312 48.71875 L 11.570312 46.734375 " fill-opacity="1" fill-rule="nonzero"/><path fill="#fffafd" d="M 7.605469 35.5 L 8.929688 35.5 L 8.929688 33.515625 L 7.605469 33.515625 L 7.605469 35.5 " fill-opacity="1" fill-rule="nonzero"/><path fill="#fffafd" d="M 11.570312 33.515625 L 10.25 33.515625 L 10.25 35.5 L 11.570312 35.5 L 11.570312 33.515625 " fill-opacity="1" fill-rule="nonzero"/><path fill="#fffafd" d="M 7.605469 38.804688 L 8.929688 38.804688 L 8.929688 36.820312 L 7.605469 36.820312 L 7.605469 38.804688 " fill-opacity="1" fill-rule="nonzero"/><path fill="#fffafd" d="M 11.570312 36.820312 L 10.25 36.820312 L 10.25 38.804688 L 11.570312 38.804688 L 11.570312 36.820312 " fill-opacity="1" fill-rule="nonzero"/><path fill="#fffafd" d="M 7.605469 42.109375 L 8.929688 42.109375 L 8.929688 40.125 L 7.605469 40.125 L 7.605469 42.109375 " fill-opacity="1" fill-rule="nonzero"/><path fill="#fffafd" d="M 11.570312 40.125 L 10.25 40.125 L 10.25 42.109375 L 11.570312 42.109375 L 11.570312 40.125 " fill-opacity="1" fill-rule="nonzero"/><path fill="#fffafd" d="M 7.605469 45.414062 L 8.929688 45.414062 L 8.929688 43.429688 L 7.605469 43.429688 L 7.605469 45.414062 " fill-opacity="1" fill-rule="nonzero"/><path fill="#fffafd" d="M 11.570312 43.429688 L 10.25 43.429688 L 10.25 45.414062 L 11.570312 45.414062 L 11.570312 43.429688 " fill-opacity="1" fill-rule="nonzero"/><path fill="#fffafd" d="M 20.824219 45.414062 L 22.148438 45.414062 L 22.148438 43.429688 L 20.824219 43.429688 L 20.824219 45.414062 " fill-opacity="1" fill-rule="nonzero"/><path fill="#fffafd" d="M 23.46875 45.414062 L 24.789062 45.414062 L 24.789062 43.429688 L 23.46875 43.429688 L 23.46875 45.414062 " fill-opacity="1" fill-rule="nonzero"/><path fill="#fffafd" d="M 26.113281 45.414062 L 27.433594 45.414062 L 27.433594 43.429688 L 26.113281 43.429688 L 26.113281 45.414062 " fill-opacity="1" fill-rule="nonzero"/><path fill="#fffafd" d="M 31.398438 42.109375 L 32.722656 42.109375 L 32.722656 40.125 L 31.398438 40.125 L 31.398438 42.109375 " fill-opacity="1" fill-rule="nonzero"/><path fill="#fffafd" d="M 34.042969 42.109375 L 35.367188 42.109375 L 35.367188 40.125 L 34.042969 40.125 L 34.042969 42.109375 " fill-opacity="1" fill-rule="nonzero"/><path fill="#fffafd" d="M 31.398438 45.414062 L 32.722656 45.414062 L 32.722656 43.429688 L 31.398438 43.429688 L 31.398438 45.414062 " fill-opacity="1" fill-rule="nonzero"/><path fill="#fffafd" d="M 34.042969 45.414062 L 35.367188 45.414062 L 35.367188 43.429688 L 34.042969 43.429688 L 34.042969 45.414062 " fill-opacity="1" fill-rule="nonzero"/><path fill="#fffafd" d="M 31.398438 48.71875 L 32.722656 48.71875 L 32.722656 46.734375 L 31.398438 46.734375 L 31.398438 48.71875 " fill-opacity="1" fill-rule="nonzero"/><path fill="#fffafd" d="M 34.042969 48.71875 L 35.367188 48.71875 L 35.367188 46.734375 L 34.042969 46.734375 L 34.042969 48.71875 " fill-opacity="1" fill-rule="nonzero"/><g clip-path="url(#d5afb0a038)"><path fill="#fffafd" d="M 34.042969 53.34375 L 34.042969 51.359375 L 32.722656 51.359375 L 32.722656 53.34375 L 30.078125 53.34375 L 30.078125 37.480469 L 36.6875 37.480469 L 36.6875 53.34375 Z M 20.824219 53.34375 L 20.824219 50.699219 L 22.148438 50.699219 L 22.148438 53.34375 Z M 22.148438 28.226562 L 22.148438 18.976562 L 34.042969 18.976562 L 34.042969 36.160156 L 32.722656 36.160156 L 32.722656 34.835938 L 31.398438 34.835938 L 31.398438 36.160156 L 30.078125 36.160156 L 30.078125 28.890625 C 30.078125 28.523438 29.78125 28.226562 29.417969 28.226562 Z M 8.929688 51.359375 L 8.929688 53.34375 L 6.285156 53.34375 L 6.285156 25.585938 L 12.894531 25.585938 L 12.894531 53.34375 L 10.25 53.34375 L 10.25 51.359375 Z M 38.007812 36.820312 C 38.007812 36.453125 37.714844 36.160156 37.347656 36.160156 L 35.367188 36.160156 L 35.367188 18.3125 C 35.367188 17.949219 35.070312 17.652344 34.703125 17.652344 L 31.398438 17.652344 L 31.398438 16.332031 L 30.078125 16.332031 L 30.078125 17.652344 L 28.757812 17.652344 L 28.757812 15.007812 L 27.433594 15.007812 L 27.433594 17.652344 L 21.484375 17.652344 C 21.121094 17.652344 20.824219 17.949219 20.824219 18.3125 L 20.824219 28.226562 L 19.480469 28.226562 L 19.480469 29.550781 L 28.757812 29.550781 L 28.757812 53.34375 L 23.46875 53.34375 L 23.46875 50.039062 C 23.46875 49.675781 23.171875 49.378906 22.808594 49.378906 L 20.164062 49.378906 C 19.796875 49.378906 19.503906 49.675781 19.503906 50.039062 L 19.503906 53.34375 L 14.214844 53.34375 L 14.214844 29.550781 L 15.578125 29.550781 L 15.578125 28.226562 L 14.214844 28.226562 L 14.214844 24.921875 C 14.214844 24.558594 13.917969 24.261719 13.554688 24.261719 L 11.570312 24.261719 L 11.570312 21.617188 L 10.25 21.617188 L 10.25 24.261719 L 8.929688 24.261719 L 8.929688 22.941406 L 7.605469 22.941406 L 7.605469 24.261719 L 5.625 24.261719 C 5.257812 24.261719 4.960938 24.558594 4.960938 24.921875 L 4.960938 53.34375 L 1.65625 53.34375 L 1.65625 54.664062 L 41.3125 54.664062 L 41.3125 53.34375 L 38.007812 53.34375 L 38.007812 36.820312 " fill-opacity="1" fill-rule="nonzero"/></g><path stroke-linecap="butt" transform="matrix(0, -0.75, 0.75, 0, 46.977288, 55.177048)" fill="none" stroke-linejoin="miter" d="M 0.00168913 0.999033 L 55.98086 0.999033 " stroke="#ffffff" stroke-width="2" stroke-opacity="1" stroke-miterlimit="4"/><g fill="#ffffff" fill-opacity="1"><g transform="translate(54.721769, 45.346196)"><g><path d="M 3.1875 0 L 3.1875 -22.828125 L 11.125 -22.828125 C 12.269531 -22.828125 13.304688 -22.582031 14.234375 -22.09375 C 15.171875 -21.613281 15.910156 -20.9375 16.453125 -20.0625 C 16.992188 -19.195312 17.265625 -18.179688 17.265625 -17.015625 C 17.265625 -15.890625 16.972656 -14.875 16.390625 -13.96875 C 15.804688 -13.070312 15.066406 -12.363281 14.171875 -11.84375 C 13.285156 -11.320312 12.378906 -11.0625 11.453125 -11.0625 L 5.34375 -11.0625 L 5.34375 0 Z M 5.34375 -11.921875 L 10.75 -11.921875 C 11.550781 -11.921875 12.28125 -12.175781 12.9375 -12.6875 C 13.59375 -13.195312 14.117188 -13.84375 14.515625 -14.625 C 14.910156 -15.40625 15.109375 -16.203125 15.109375 -17.015625 C 15.109375 -17.816406 14.910156 -18.597656 14.515625 -19.359375 C 14.117188 -20.128906 13.59375 -20.753906 12.9375 -21.234375 C 12.28125 -21.722656 11.550781 -21.96875 10.75 -21.96875 L 5.34375 -21.96875 Z M 5.34375 -11.921875 "/></g></g></g><g fill="#ffffff" fill-opacity="1"><g transform="translate(67.530471, 45.346196)"><g/></g></g><g fill="#ffffff" fill-opacity="1"><g transform="translate(78.018488, 45.346196)"><g><path d="M 11.1875 0.34375 C 9.726562 0.34375 8.390625 0.0703125 7.171875 -0.46875 C 5.953125 -1.019531 4.984375 -1.828125 4.265625 -2.890625 C 3.546875 -3.953125 3.1875 -5.242188 3.1875 -6.765625 L 3.1875 -22.828125 L 5.3125 -22.828125 L 5.3125 -7.4375 C 5.3125 -6 5.578125 -4.785156 6.109375 -3.796875 C 6.640625 -2.816406 7.347656 -2.078125 8.234375 -1.578125 C 9.128906 -1.078125 10.113281 -0.828125 11.1875 -0.828125 C 12.269531 -0.828125 13.300781 -1.03125 14.28125 -1.4375 C 15.269531 -1.851562 16.082031 -2.539062 16.71875 -3.5 C 17.351562 -4.46875 17.671875 -5.78125 17.671875 -7.4375 L 17.671875 -22.828125 L 18.53125 -22.828125 L 18.53125 -6.703125 C 18.53125 -4.441406 17.851562 -2.703125 16.5 -1.484375 C 15.144531 -0.265625 13.375 0.34375 11.1875 0.34375 Z M 11.1875 0.34375 "/></g></g></g><g fill="#ffffff" fill-opacity="1"><g transform="translate(121.764401, 40.64124)"><g><path d="M 1.75 0 L 1.75 -12.578125 L 6.125 -12.578125 C 6.757812 -12.578125 7.332031 -12.441406 7.84375 -12.171875 C 8.363281 -11.898438 8.769531 -11.523438 9.0625 -11.046875 C 9.363281 -10.566406 9.515625 -10.007812 9.515625 -9.375 C 9.515625 -8.75 9.351562 -8.1875 9.03125 -7.6875 C 8.707031 -7.195312 8.300781 -6.804688 7.8125 -6.515625 C 7.320312 -6.234375 6.820312 -6.09375 6.3125 -6.09375 L 2.9375 -6.09375 L 2.9375 0 Z M 2.9375 -6.5625 L 5.921875 -6.5625 C 6.359375 -6.5625 6.757812 -6.703125 7.125 -6.984375 C 7.488281 -7.265625 7.773438 -7.617188 7.984375 -8.046875 C 8.203125 -8.484375 8.3125 -8.925781 8.3125 -9.375 C 8.3125 -9.8125 8.203125 -10.238281 7.984375 -10.65625 C 7.773438 -11.082031 7.488281 -11.429688 7.125 -11.703125 C 6.757812 -11.972656 6.359375 -12.109375 5.921875 -12.109375 L 2.9375 -12.109375 Z M 2.9375 -6.5625 "/></g></g></g><g fill="#ffffff" fill-opacity="1"><g transform="translate(135.622519, 40.64124)"><g><path d="M 1.75 0 L 1.75 -12.578125 L 2.9375 -12.578125 L 2.9375 -0.46875 L 9.21875 -0.46875 L 9.21875 0 Z M 1.75 0 "/></g></g></g><g fill="#ffffff" fill-opacity="1"><g transform="translate(149.883584, 40.64124)"><g><path d="M 1.75 0 L 5.609375 -12.5625 L 5.609375 -12.578125 L 6.84375 -12.578125 L 10.71875 0 L 9.46875 0 L 8.5 -3.21875 L 3.234375 -3.21875 L 2.234375 0 Z M 3.375 -3.703125 L 8.34375 -3.703125 L 5.875 -11.75 Z M 3.375 -3.703125 "/></g></g></g><g fill="#ffffff" fill-opacity="1"><g transform="translate(165.668842, 40.64124)"><g><path d="M 6.84375 0.203125 C 6.101562 0.203125 5.398438 0.0390625 4.734375 -0.28125 C 4.078125 -0.613281 3.5 -1.078125 3 -1.671875 C 2.507812 -2.265625 2.117188 -2.945312 1.828125 -3.71875 C 1.546875 -4.488281 1.40625 -5.316406 1.40625 -6.203125 C 1.40625 -7.085938 1.546875 -7.914062 1.828125 -8.6875 C 2.117188 -9.457031 2.507812 -10.132812 3 -10.71875 C 3.5 -11.3125 4.078125 -11.773438 4.734375 -12.109375 C 5.398438 -12.441406 6.101562 -12.609375 6.84375 -12.609375 C 7.488281 -12.609375 8.117188 -12.453125 8.734375 -12.140625 C 9.359375 -11.828125 9.910156 -11.378906 10.390625 -10.796875 L 10.015625 -10.484375 C 9.585938 -11.003906 9.097656 -11.410156 8.546875 -11.703125 C 8.003906 -11.992188 7.4375 -12.140625 6.84375 -12.140625 C 6.257812 -12.140625 5.710938 -11.96875 5.203125 -11.625 C 4.691406 -11.28125 4.238281 -10.820312 3.84375 -10.25 C 3.457031 -9.675781 3.148438 -9.035156 2.921875 -8.328125 C 2.703125 -7.628906 2.59375 -6.921875 2.59375 -6.203125 C 2.59375 -5.453125 2.707031 -4.710938 2.9375 -3.984375 C 3.175781 -3.253906 3.507812 -2.597656 3.9375 -2.015625 C 4.363281 -1.441406 4.867188 -0.992188 5.453125 -0.671875 C 6.046875 -0.359375 6.703125 -0.242188 7.421875 -0.328125 C 7.847656 -0.390625 8.207031 -0.515625 8.5 -0.703125 C 8.789062 -0.890625 9.023438 -1.085938 9.203125 -1.296875 C 9.378906 -1.515625 9.507812 -1.695312 9.59375 -1.84375 C 9.6875 -2 9.734375 -2.078125 9.734375 -2.078125 L 9.734375 -5.953125 L 8.140625 -5.953125 L 8.140625 -6.421875 L 10.9375 -6.421875 L 10.9375 -2.484375 C 10.726562 -1.921875 10.414062 -1.4375 10 -1.03125 C 9.582031 -0.632812 9.097656 -0.332031 8.546875 -0.125 C 7.992188 0.0820312 7.425781 0.191406 6.84375 0.203125 Z M 6.84375 0.203125 "/></g></g></g><g fill="#ffffff" fill-opacity="1"><g transform="translate(181.646818, 40.64124)"><g><path d="M 1.75 0 L 5.609375 -12.5625 L 5.609375 -12.578125 L 6.84375 -12.578125 L 10.71875 0 L 9.46875 0 L 8.5 -3.21875 L 3.234375 -3.21875 L 2.234375 0 Z M 3.375 -3.703125 L 8.34375 -3.703125 L 5.875 -11.75 Z M 3.375 -3.703125 "/></g></g></g><g fill="#ffffff" fill-opacity="1"><g transform="translate(197.432076, 40.64124)"><g/></g></g><g fill="#ffffff" fill-opacity="1"><g transform="translate(210.011272, 40.64124)"><g><path d="M 6.171875 0.1875 C 5.359375 0.1875 4.613281 0.0351562 3.9375 -0.265625 C 3.269531 -0.566406 2.738281 -1.007812 2.34375 -1.59375 C 1.945312 -2.175781 1.75 -2.890625 1.75 -3.734375 L 1.75 -12.578125 L 2.921875 -12.578125 L 2.921875 -4.09375 C 2.921875 -3.300781 3.066406 -2.632812 3.359375 -2.09375 C 3.648438 -1.550781 4.039062 -1.140625 4.53125 -0.859375 C 5.019531 -0.585938 5.566406 -0.453125 6.171875 -0.453125 C 6.765625 -0.453125 7.332031 -0.566406 7.875 -0.796875 C 8.414062 -1.023438 8.859375 -1.40625 9.203125 -1.9375 C 9.554688 -2.46875 9.734375 -3.1875 9.734375 -4.09375 L 9.734375 -12.578125 L 10.21875 -12.578125 L 10.21875 -3.703125 C 10.21875 -2.453125 9.84375 -1.488281 9.09375 -0.8125 C 8.34375 -0.144531 7.367188 0.1875 6.171875 0.1875 Z M 6.171875 0.1875 "/></g></g></g><g fill="#ffffff" fill-opacity="1"><g transform="translate(225.270948, 40.64124)"><g><path d="M 1.75 0 L 1.75 -12.578125 L 6.171875 -12.578125 C 6.742188 -12.578125 7.285156 -12.4375 7.796875 -12.15625 C 8.304688 -11.882812 8.722656 -11.507812 9.046875 -11.03125 C 9.367188 -10.550781 9.53125 -9.992188 9.53125 -9.359375 C 9.53125 -8.734375 9.367188 -8.171875 9.046875 -7.671875 C 8.722656 -7.179688 8.300781 -6.789062 7.78125 -6.5 C 7.257812 -6.21875 6.707031 -6.078125 6.125 -6.078125 L 10.453125 0 L 9.15625 0 L 4.8125 -6.078125 L 2.921875 -6.078125 L 2.921875 0 Z M 2.921875 -6.546875 L 5.9375 -6.546875 C 6.382812 -6.546875 6.785156 -6.6875 7.140625 -6.96875 C 7.503906 -7.25 7.796875 -7.601562 8.015625 -8.03125 C 8.234375 -8.46875 8.34375 -8.910156 8.34375 -9.359375 C 8.34375 -9.796875 8.234375 -10.222656 8.015625 -10.640625 C 7.796875 -11.066406 7.503906 -11.414062 7.140625 -11.6875 C 6.785156 -11.96875 6.382812 -12.109375 5.9375 -12.109375 L 2.921875 -12.109375 Z M 2.921875 -6.546875 "/></g></g></g><g fill="#ffffff" fill-opacity="1"><g transform="translate(240.775895, 40.64124)"><g><path d="M 1.75 0 L 1.75 -12.578125 L 6.234375 -12.578125 C 6.828125 -12.578125 7.359375 -12.429688 7.828125 -12.140625 C 8.296875 -11.859375 8.664062 -11.472656 8.9375 -10.984375 C 9.21875 -10.503906 9.359375 -9.960938 9.359375 -9.359375 C 9.359375 -8.660156 9.175781 -8.0625 8.8125 -7.5625 C 8.457031 -7.0625 7.988281 -6.691406 7.40625 -6.453125 C 8.132812 -6.242188 8.726562 -5.863281 9.1875 -5.3125 C 9.65625 -4.769531 9.890625 -4.097656 9.890625 -3.296875 C 9.890625 -2.648438 9.738281 -2.078125 9.4375 -1.578125 C 9.144531 -1.085938 8.742188 -0.695312 8.234375 -0.40625 C 7.722656 -0.125 7.148438 0.015625 6.515625 0.015625 Z M 2.9375 -6.578125 L 5.765625 -6.578125 C 6.203125 -6.578125 6.601562 -6.710938 6.96875 -6.984375 C 7.34375 -7.265625 7.640625 -7.617188 7.859375 -8.046875 C 8.078125 -8.472656 8.1875 -8.910156 8.1875 -9.359375 C 8.1875 -9.796875 8.078125 -10.222656 7.859375 -10.640625 C 7.640625 -11.066406 7.34375 -11.414062 6.96875 -11.6875 C 6.601562 -11.96875 6.203125 -12.109375 5.765625 -12.109375 L 2.9375 -12.109375 Z M 2.9375 -0.453125 L 6.234375 -0.453125 C 6.691406 -0.453125 7.109375 -0.59375 7.484375 -0.875 C 7.859375 -1.164062 8.15625 -1.523438 8.375 -1.953125 C 8.601562 -2.390625 8.71875 -2.835938 8.71875 -3.296875 C 8.71875 -3.742188 8.601562 -4.179688 8.375 -4.609375 C 8.15625 -5.046875 7.859375 -5.40625 7.484375 -5.6875 C 7.109375 -5.96875 6.691406 -6.109375 6.234375 -6.109375 L 2.9375 -6.109375 Z M 2.9375 -0.453125 "/></g></g></g><g fill="#ffffff" fill-opacity="1"><g transform="translate(255.720218, 40.64124)"><g><path d="M 1.75 0 L 5.609375 -12.5625 L 5.609375 -12.578125 L 6.84375 -12.578125 L 10.71875 0 L 9.46875 0 L 8.5 -3.21875 L 3.234375 -3.21875 L 2.234375 0 Z M 3.375 -3.703125 L 8.34375 -3.703125 L 5.875 -11.75 Z M 3.375 -3.703125 "/></g></g></g><g fill="#ffffff" fill-opacity="1"><g transform="translate(271.505476, 40.64124)"><g><path d="M 1.75 0 L 1.75 -12.578125 L 3.125 -12.578125 L 9.140625 -2.34375 L 9.140625 -12.578125 L 9.609375 -12.578125 L 9.609375 0 L 9.140625 0 L 9.140625 -0.015625 L 2.21875 -11.765625 L 2.21875 0 Z M 1.75 0 "/></g></g></g><g fill="#ffffff" fill-opacity="1"><g transform="translate(286.169488, 40.64124)"><g><path d="M 1.75 0 L 5.609375 -12.5625 L 5.609375 -12.578125 L 6.84375 -12.578125 L 10.71875 0 L 9.46875 0 L 8.5 -3.21875 L 3.234375 -3.21875 L 2.234375 0 Z M 3.375 -3.703125 L 8.34375 -3.703125 L 5.875 -11.75 Z M 3.375 -3.703125 "/></g></g></g></svg>